<svg width="122" height="122" viewBox="0 0 122 122" fill="none" xmlns="http://www.w3.org/2000/svg">
<rect x="49.4141" y="85.345" width="24" height="6.655" fill="#CED3DA"/>
<rect width="24" height="20" transform="matrix(1 0 0 -1 49.4141 120)" fill="#5B616E" fill-opacity="0.66"/>
<circle cx="61.4134" cy="59.9999" r="32.0004" fill="url(#paint0_linear_352_92986)"/>
<circle cx="61.4134" cy="59.9999" r="32.0004" fill="white" fill-opacity="0.2"/>
<circle cx="61.4134" cy="59.9999" r="32.0004" fill="url(#paint1_linear_352_92986)" fill-opacity="0.2"/>
<path fill-rule="evenodd" clip-rule="evenodd" d="M120.379 60.0202C120.379 59.6983 120.376 59.3767 120.371 59.0553L121.371 59.0393C121.376 59.3661 121.379 59.6932 121.379 60.0205L120.379 60.0202ZM120.309 57.1267C120.278 56.4837 120.236 55.8418 120.183 55.2013L121.18 55.1199C121.233 55.7713 121.276 56.424 121.308 57.078L120.309 57.1267ZM119.995 53.281C119.922 52.6416 119.838 52.0038 119.744 51.368L120.733 51.2216C120.829 51.8682 120.914 52.5168 120.988 53.1671L119.995 53.281ZM119.43 49.4641C119.315 48.831 119.19 48.2 119.054 47.5715L120.032 47.3607C120.17 47.9999 120.297 48.6415 120.414 49.2854L119.43 49.4641ZM118.617 45.6923C118.461 45.0682 118.294 44.4468 118.118 43.8283L119.08 43.5541C119.259 44.183 119.428 44.8149 119.587 45.4496L118.617 45.6923ZM117.558 41.9817C117.362 41.3693 117.155 40.7601 116.939 40.1543L117.881 39.8178C118.101 40.4338 118.311 41.0533 118.511 41.6761L117.558 41.9817ZM116.26 38.3483C116.024 37.7502 115.778 37.1558 115.522 36.5654L116.44 36.1679C116.7 36.7684 116.95 37.3729 117.19 37.9811L116.26 38.3483ZM114.726 34.8075C114.452 34.2263 114.167 33.6493 113.874 33.0767L114.763 32.6201C115.062 33.2024 115.351 33.7892 115.63 34.3803L114.726 34.8075ZM112.965 31.3748C112.653 30.813 112.331 30.2558 112 29.7034L112.858 29.1896C113.195 29.7513 113.522 30.318 113.839 30.8893L112.965 31.3748ZM110.982 28.0645C110.808 27.7943 110.631 27.5253 110.453 27.2577C110.274 26.99 110.093 26.724 109.91 26.4596L110.733 25.8908C110.919 26.1597 111.103 26.4302 111.284 26.7024C111.466 26.9746 111.646 27.2481 111.823 27.5229L110.982 28.0645ZM108.787 24.8908C108.404 24.3735 108.012 23.8631 107.613 23.3596L108.396 22.7382C108.803 23.2502 109.201 23.7693 109.59 24.2953L108.787 24.8908ZM106.389 21.8676C105.973 21.3767 105.549 20.893 105.118 20.4166L105.859 19.7452C106.298 20.2297 106.729 20.7217 107.152 21.2209L106.389 21.8676ZM103.799 19.0078C103.352 18.5452 102.897 18.0902 102.435 17.6429L103.131 16.9246C103.601 17.3795 104.063 17.8422 104.518 18.3126L103.799 19.0078ZM101.027 16.3235C100.551 15.8913 100.067 15.467 99.5771 15.0508L100.224 14.2885C100.723 14.7118 101.215 15.1432 101.699 15.5827L101.027 16.3235ZM98.086 13.8262C97.5824 13.4262 97.0722 13.0344 96.5556 12.651L97.1516 11.848C97.6769 12.2379 98.1958 12.6363 98.7079 13.0431L98.086 13.8262ZM94.9876 11.5266C94.459 11.1605 93.9243 10.8029 93.3836 10.454L93.9258 9.61378C94.4757 9.96858 95.0195 10.3322 95.557 10.7045L94.9876 11.5266ZM91.7454 9.43452C91.1942 9.10388 90.6372 8.78206 90.0748 8.46921L90.5608 7.59529C91.1328 7.91344 91.6992 8.24072 92.2598 8.57697L91.7454 9.43452ZM88.3734 7.55909C87.8019 7.26528 87.2251 6.98057 86.6432 6.7051L87.071 5.80126C87.6628 6.08139 88.2494 6.37094 88.8306 6.66973L88.3734 7.55909ZM84.8858 5.90815C84.591 5.7802 84.2949 5.65459 83.9976 5.53133C83.7003 5.40807 83.4022 5.28732 83.1033 5.16909L83.4711 4.2392C83.7751 4.35944 84.0783 4.48223 84.3806 4.60758C84.6829 4.73293 84.984 4.86067 85.2839 4.99079L84.8858 5.90815ZM81.2977 4.4888C80.6916 4.27168 80.0825 4.06471 79.4708 3.86791L79.777 2.91596C80.3991 3.11609 81.0185 3.32657 81.635 3.54737L81.2977 4.4888ZM77.6245 3.30717C77.0057 3.13022 76.3844 2.96354 75.761 2.80714L76.0043 1.83719C76.6383 1.99624 77.2701 2.16575 77.8994 2.3457L77.6245 3.30717ZM73.8819 2.36835C73.253 2.2323 72.6222 2.1066 71.9896 1.99129L72.169 1.0075C72.8122 1.12477 73.4538 1.2526 74.0934 1.39096L73.8819 2.36835ZM70.086 1.67634C69.4497 1.58173 68.8119 1.49756 68.173 1.42384L68.2877 0.430428C68.9374 0.505397 69.5859 0.591001 70.2331 0.687212L70.086 1.67634ZM66.2529 1.23405C65.6119 1.18127 64.97 1.13898 64.3275 1.10719L64.3769 0.108411C65.0303 0.140739 65.6831 0.183752 66.3349 0.237426L66.2529 1.23405ZM62.399 1.04339C62.0775 1.03801 61.7559 1.03527 61.4343 1.03516L61.4346 0.0351556C61.7617 0.0352697 62.0888 0.0380607 62.4158 0.0435253L62.399 1.04339ZM61.3936 119.965C61.0663 119.965 60.7392 119.962 60.4124 119.956L60.4291 118.957C60.7505 118.962 61.0721 118.965 61.3939 118.965L61.3936 119.965ZM58.4511 119.892C57.7972 119.859 57.1445 119.816 56.4931 119.763L56.5752 118.766C57.2156 118.819 57.8575 118.861 58.5005 118.893L58.4511 119.892ZM54.5405 119.57C53.8902 119.495 53.2417 119.409 52.5951 119.313L52.7422 118.324C53.378 118.418 54.0157 118.502 54.6551 118.576L54.5405 119.57ZM50.6592 118.992C50.0154 118.875 49.3738 118.747 48.7347 118.609L48.9462 117.632C49.5746 117.768 50.2055 117.893 50.8385 118.009L50.6592 118.992ZM46.8239 118.163C46.1894 118.004 45.5576 117.834 44.9287 117.654L45.2036 116.693C45.822 116.87 46.4433 117.036 47.0672 117.193L46.8239 118.163ZM43.0512 117.084C42.4286 116.884 41.8092 116.673 41.1933 116.453L41.5305 115.511C42.1361 115.728 42.7452 115.935 43.3574 116.132L43.0512 117.084ZM39.357 115.761C38.749 115.52 38.1447 115.27 37.5444 115.009L37.9425 114.092C38.5328 114.348 39.127 114.594 39.7249 114.831L39.357 115.761ZM35.7573 114.199C35.1665 113.919 34.5799 113.63 33.9978 113.33L34.455 112.441C35.0274 112.735 35.6042 113.02 36.1852 113.295L35.7573 114.199ZM32.2676 112.405C31.6964 112.087 31.13 111.76 30.5685 111.423L31.0829 110.566C31.6351 110.897 32.192 111.219 32.7536 111.531L32.2676 112.405ZM28.9025 110.386C28.6278 110.209 28.3544 110.029 28.0824 109.848C27.8103 109.666 27.5399 109.482 27.2712 109.295L27.8406 108.473C28.1048 108.656 28.3707 108.837 28.6382 109.016C28.9058 109.195 29.1746 109.372 29.4447 109.546L28.9025 110.386ZM25.6765 108.152C25.1507 107.762 24.6319 107.363 24.1202 106.957L24.7421 106.174C25.2453 106.573 25.7555 106.965 26.2725 107.349L25.6765 108.152ZM22.6038 105.712C22.1048 105.288 21.6132 104.856 21.129 104.417L21.8008 103.677C22.2769 104.108 22.7604 104.533 23.251 104.949L22.6038 105.712ZM19.6972 103.075C19.2271 102.62 18.7647 102.157 18.3102 101.687L19.029 100.992C19.476 101.454 19.9307 101.909 20.3929 102.357L19.6972 103.075ZM16.9693 100.255C16.5301 99.7698 16.099 99.2778 15.676 98.7789L16.4388 98.1323C16.8547 98.6228 17.2787 99.1066 17.7105 99.5834L16.9693 100.255ZM14.4317 97.2617C14.0253 96.7492 13.6272 96.2301 13.2377 95.7045L14.0411 95.1091C14.4242 95.6259 14.8156 96.1364 15.2152 96.6403L14.4317 97.2617ZM12.0953 94.1092C11.7234 93.5714 11.3601 93.0273 11.0057 92.4772L11.8463 91.9356C12.1948 92.4765 12.552 93.0115 12.9178 93.5403L12.0953 94.1092ZM9.97 90.8105C9.63413 90.2497 9.30724 89.6831 8.98948 89.1109L9.86374 88.6254C10.1762 89.1881 10.4976 89.7452 10.8279 90.2967L9.97 90.8105ZM8.06511 87.38C7.76671 86.7986 7.47757 86.2118 7.19783 85.6198L8.10197 85.1926C8.37704 85.7747 8.66137 86.3517 8.95477 86.9234L8.06511 87.38ZM6.38859 83.8322C6.25868 83.5322 6.13114 83.231 6.006 82.9286C5.88086 82.6262 5.75827 82.3229 5.63824 82.0189L6.56838 81.6517C6.68641 81.9506 6.80696 82.2488 6.93001 82.5462C7.05306 82.8436 7.17848 83.1398 7.30622 83.4347L6.38859 83.8322ZM4.94766 80.1822C4.72729 79.5657 4.51723 78.9461 4.31752 78.3238L5.26969 78.0183C5.46607 78.6301 5.67262 79.2394 5.88932 79.8456L4.94766 80.1822ZM3.74856 76.4459C3.56904 75.8164 3.39996 75.1845 3.24135 74.5504L4.21146 74.3077C4.36743 74.9313 4.53369 75.5527 4.71021 76.1716L3.74856 76.4459ZM2.79642 72.6392C2.65849 71.9995 2.5311 71.3579 2.41428 70.7145L3.39818 70.5358C3.51306 71.1684 3.63833 71.7994 3.77395 72.4284L2.79642 72.6392ZM2.09532 68.7784C1.99955 68.1312 1.91439 67.4826 1.83986 66.8328L2.83335 66.7189C2.90663 67.3578 2.99037 67.9956 3.08454 68.632L2.09532 68.7784ZM1.64819 64.8799C1.59497 64.2281 1.5524 63.5753 1.52052 62.9218L2.51933 62.8731C2.55068 63.5156 2.59254 64.1576 2.64488 64.7986L1.64819 64.8799ZM1.45698 60.9606C1.45173 60.6337 1.44917 60.3066 1.44928 59.9795L2.44928 59.9798C2.44917 60.3015 2.4517 60.6231 2.45685 60.9446L1.45698 60.9606Z" fill="#CED3DA"/>
<path fill-rule="evenodd" clip-rule="evenodd" d="M104.934 60.0149C104.937 51.4074 102.387 42.9923 97.6078 35.8338C92.8281 28.6753 86.0331 23.0948 78.0819 19.7982C72.7769 17.5986 67.1162 16.4816 61.4285 16.4796L61.4289 15.4796C67.2473 15.4817 73.038 16.6243 78.4649 18.8744C86.5988 22.2468 93.55 27.9555 98.4394 35.2785C103.329 42.6015 105.937 51.21 105.934 60.0153L104.934 60.0149Z" fill="#CED3DA"/>
<path fill-rule="evenodd" clip-rule="evenodd" d="M18.8266 68.9628C20.5993 77.3858 24.8299 85.094 30.9833 91.1126L30.2841 91.8275C23.9892 85.6706 19.6614 77.7853 17.848 69.1687C16.0346 60.5522 16.8171 51.5914 20.0964 43.4195C22.2843 37.9673 25.5182 33.0296 29.5865 28.8701L30.3014 29.5693C26.3244 33.6354 23.1632 38.4622 21.0244 43.792C17.8188 51.7803 17.0539 60.5398 18.8266 68.9628Z" fill="#CED3DA"/>
<path fill-rule="evenodd" clip-rule="evenodd" d="M120.378 60C120.378 60.3218 120.375 60.6435 120.37 60.9649L121.37 60.9812C121.375 60.6544 121.378 60.3273 121.378 60L120.378 60ZM120.307 62.8934C120.275 63.5365 120.233 64.1784 120.181 64.8188L121.177 64.9005C121.231 64.2492 121.274 63.5965 121.306 62.9425L120.307 62.8934ZM119.992 66.739C119.918 67.3784 119.834 68.0162 119.74 68.652L120.729 68.7987C120.825 68.1521 120.91 67.5036 120.985 66.8533L119.992 66.739ZM119.425 70.5558C119.31 71.1889 119.185 71.8197 119.049 72.4482L120.026 72.6593C120.164 72.0202 120.292 71.3786 120.409 70.7348L119.425 70.5558ZM118.611 74.3273C118.455 74.9513 118.288 75.5727 118.111 76.1911L119.073 76.4657C119.253 75.8368 119.422 75.2049 119.581 74.5703L118.611 74.3273ZM117.551 78.0375C117.355 78.6498 117.148 79.259 116.931 79.8646L117.873 80.2015C118.093 79.5856 118.303 78.9661 118.503 78.3434L117.551 78.0375ZM116.251 81.6705C116.015 82.2685 115.769 82.8628 115.513 83.4531L116.431 83.8509C116.691 83.2505 116.941 82.6461 117.181 82.038L116.251 81.6705ZM114.717 85.2107C114.442 85.7918 114.157 86.3687 113.863 86.9412L114.753 87.3981C115.052 86.8159 115.341 86.2292 115.621 85.6383L114.717 85.2107ZM112.954 88.6429C112.642 89.2046 112.32 89.7616 111.989 90.3139L112.847 90.828C113.183 90.2664 113.51 89.6999 113.828 89.1286L112.954 88.6429ZM110.97 91.9525C110.796 92.2226 110.619 92.4915 110.441 92.7591C110.262 93.0267 110.081 93.2927 109.898 93.557L110.72 94.1261C110.906 93.8573 111.09 93.5868 111.272 93.3147C111.454 93.0426 111.633 92.7691 111.81 92.4944L110.97 91.9525ZM108.774 95.1254C108.391 95.6426 107.999 96.1529 107.599 96.6562L108.383 97.2779C108.789 96.766 109.187 96.247 109.577 95.7211L108.774 95.1254ZM106.375 98.1477C105.959 98.6385 105.535 99.1221 105.103 99.5984L105.844 100.27C106.283 99.7856 106.714 99.2938 107.138 98.7947L106.375 98.1477ZM103.784 101.007C103.337 101.469 102.882 101.924 102.42 102.371L103.115 103.09C103.585 102.635 104.048 102.172 104.503 101.702L103.784 101.007ZM101.011 103.69C100.535 104.122 100.051 104.546 99.5608 104.962L100.208 105.725C100.706 105.302 101.198 104.87 101.683 104.431L101.011 103.69ZM98.0692 106.186C97.5655 106.586 97.0551 106.978 96.5384 107.361L97.1341 108.164C97.6596 107.774 98.1786 107.376 98.6909 106.97L98.0692 106.186ZM94.9701 108.485C94.4414 108.851 93.9065 109.208 93.3657 109.557L93.9076 110.397C94.4576 110.043 95.0015 109.679 95.5392 109.307L94.9701 108.485ZM91.7271 110.576C91.1758 110.906 90.6187 111.228 90.0562 111.541L90.5419 112.415C91.114 112.097 91.6806 111.77 92.2412 111.434L91.7271 110.576ZM88.3545 112.45C87.7829 112.744 87.206 113.028 86.624 113.304L87.0515 114.208C87.6434 113.928 88.2301 113.638 88.8114 113.34L88.3545 112.45ZM84.8664 114.1C84.5714 114.228 84.2753 114.353 83.978 114.476C83.6807 114.6 83.3825 114.72 83.0836 114.838L83.4511 115.768C83.7551 115.648 84.0583 115.526 84.3607 115.4C84.663 115.275 84.9642 115.147 85.2641 115.017L84.8664 114.1ZM81.2778 115.518C80.6716 115.735 80.0624 115.942 79.4506 116.138L79.7565 117.09C80.3787 116.89 80.9982 116.68 81.6147 116.46L81.2778 115.518ZM77.6042 116.698C76.9853 116.875 76.3639 117.042 75.7404 117.198L75.9834 118.168C76.6175 118.009 77.2494 117.84 77.8788 117.66L77.6042 116.698ZM73.8613 117.636C73.2323 117.772 72.6014 117.897 71.9688 118.012L72.1478 118.996C72.7911 118.879 73.4327 118.752 74.0724 118.613L73.8613 117.636ZM70.0651 118.327C69.4287 118.421 68.791 118.505 68.152 118.578L68.2663 119.572C68.9161 119.497 69.5647 119.412 70.2118 119.316L70.0651 118.327ZM66.2318 118.768C65.5908 118.82 64.9489 118.862 64.3064 118.894L64.3555 119.893C65.0089 119.86 65.6617 119.818 66.3135 119.764L66.2318 118.768ZM62.3779 118.957C62.0564 118.962 61.7348 118.965 61.4131 118.965L61.4131 119.965C61.7403 119.965 62.0673 119.962 62.3943 119.957L62.3779 118.957ZM61.4131 0.0352352C61.0858 0.0352352 60.7588 0.0379131 60.4319 0.0432613L60.4483 1.04312C60.7697 1.03787 61.0913 1.03524 61.4131 1.03524L61.4131 0.0352352ZM58.4706 0.107448C57.8167 0.139575 57.1639 0.182376 56.5126 0.235774L56.5943 1.23243C57.2348 1.17992 57.8767 1.13784 58.5197 1.10625L58.4706 0.107448ZM54.5599 0.428104C53.9096 0.502902 53.261 0.588306 52.6144 0.684222L52.7612 1.6734C53.397 1.57908 54.0347 1.4951 54.6741 1.42155L54.5599 0.428104ZM50.6784 1.00388C50.0345 1.12103 49.3929 1.24867 48.7538 1.38671L48.9649 2.36417C49.5934 2.22843 50.2243 2.10292 50.8574 1.98773L50.6784 1.00388ZM46.8428 1.8323C46.2082 1.99126 45.5764 2.16058 44.9475 2.34017L45.2221 3.30173C45.8405 3.12513 46.4618 2.95864 47.0858 2.80233L46.8428 1.8323ZM43.0697 2.90978C42.447 3.10985 41.8276 3.32012 41.2116 3.54051L41.5485 4.48206C42.1542 4.26534 42.7633 4.05857 43.3756 3.86184L43.0697 2.90978ZM39.3751 4.23169C38.767 4.472 38.1627 4.72232 37.5623 4.9826L37.96 5.9001C38.5504 5.64416 39.1447 5.39801 39.7427 5.16172L39.3751 4.23169ZM35.7749 5.79245C35.1839 6.07193 34.5972 6.36124 34.015 6.66031L34.4719 7.54982C35.0444 7.25574 35.6214 6.97126 36.2024 6.69644L35.7749 5.79245ZM32.2845 7.58528C31.7133 7.90274 31.1468 8.22981 30.5852 8.56641L31.0993 9.42414C31.6515 9.09314 32.2086 8.77153 32.7703 8.45937L32.2845 7.58528ZM28.9188 9.60267C28.644 9.7798 28.3706 9.95929 28.0985 10.1411C27.8263 10.3229 27.5559 10.5069 27.2871 10.6929L27.8562 11.5152C28.1205 11.3323 28.3864 11.1514 28.654 10.9726C28.9216 10.7938 29.1905 10.6173 29.4607 10.4431L28.9188 9.60267ZM25.692 11.8359C25.1661 12.2259 24.6471 12.6242 24.1352 13.0305L24.7569 13.8137C25.2603 13.4143 25.7706 13.0227 26.2877 12.6391L25.692 11.8359ZM22.6184 14.2752C22.1193 14.6987 21.6275 15.13 21.1432 15.569L21.8148 16.31C22.291 15.8783 22.7746 15.4542 23.2654 15.0378L22.6184 14.2752ZM19.711 16.9104C19.2408 17.3655 18.7782 17.8281 18.3235 18.298L19.0421 18.9934C19.4892 18.5314 19.944 18.0765 20.4064 17.629L19.711 16.9104ZM16.9821 19.7301C16.5428 20.2149 16.1115 20.7067 15.6883 21.2054L16.4509 21.8524C16.8669 21.362 17.2911 20.8784 17.7231 20.4017L16.9821 19.7301ZM14.4435 22.7223C14.0369 23.2346 13.6387 23.7536 13.249 24.279L14.0522 24.8747C14.4354 24.358 14.827 23.8477 15.2268 23.3439L14.4435 22.7223ZM12.106 25.874C11.7339 26.4117 11.3704 26.9556 11.0158 27.5055L11.8563 28.0474C12.205 27.5066 12.5623 26.9718 12.9283 26.4431L12.106 25.874ZM9.97958 29.1719C9.64352 29.7326 9.31643 30.2991 8.99848 30.8712L9.87257 31.357C10.1852 30.7944 10.5069 30.2374 10.8373 29.686L9.97958 29.1719ZM8.07351 32.6018C7.77492 33.1831 7.48558 33.7698 7.20564 34.3616L8.10963 34.7892C8.3849 34.2072 8.66942 33.6303 8.96302 33.0587L8.07351 32.6018ZM6.39579 36.1491C6.26577 36.449 6.13813 36.7501 6.01288 37.0525C5.88764 37.3549 5.76495 37.6581 5.64481 37.9621L6.57483 38.3296C6.69296 38.0307 6.81361 37.7325 6.93676 37.4352C7.05992 37.1379 7.18544 36.8417 7.31328 36.5468L6.39579 36.1491ZM4.95362 39.7985C4.73303 40.415 4.52276 41.0345 4.32283 41.6567L5.2749 41.9626C5.47149 41.3507 5.67824 40.7416 5.89515 40.1354L4.95362 39.7985ZM3.75322 43.5344C3.57349 44.1638 3.40419 44.7957 3.24537 45.4298L4.2154 45.6727C4.37158 45.0492 4.53805 44.4279 4.71479 43.809L3.75322 43.5344ZM2.79979 47.3408C2.66164 47.9804 2.53403 48.622 2.41699 49.2653L3.40083 49.4443C3.51593 48.8118 3.64142 48.1809 3.77725 47.5519L2.79979 47.3408ZM2.09736 51.2014C2.00137 51.8485 1.91599 52.4971 1.84124 53.1468L2.83469 53.2611C2.90819 52.6222 2.99215 51.9844 3.08654 51.3481L2.09736 51.2014ZM1.64891 55.0996C1.59546 55.7515 1.55267 56.4043 1.52057 57.0577L2.51936 57.1068C2.55092 56.4642 2.59301 55.8223 2.64557 55.1814L1.64891 55.0996ZM1.45635 59.0189C1.45099 59.3458 1.44832 59.6729 1.44832 60L2.44832 60C2.44832 59.6784 2.45095 59.3568 2.45621 59.0352L1.45635 59.0189Z" fill="#CED3DA"/>
<path fill-rule="evenodd" clip-rule="evenodd" d="M15.8223 22.3924C14.9281 21.7439 14.7289 20.4934 15.3774 19.5992C16.9176 17.4753 18.7041 15.4826 20.7336 13.6625C22.7632 11.8424 24.9379 10.2826 27.2164 8.9819C28.1757 8.43429 29.3972 8.768 29.9449 9.72727C30.4925 10.6865 30.1588 11.9081 29.1995 12.4557C27.1655 13.6168 25.2215 15.0107 23.4042 16.6404C21.587 18.2701 19.9905 20.0515 18.6155 21.9474C17.9671 22.8416 16.7165 23.0408 15.8223 22.3924Z" fill="#00D17F"/>
<path fill-rule="evenodd" clip-rule="evenodd" d="M113.624 88.1108C114.625 88.5781 115.057 89.7683 114.59 90.7691C113.48 93.1463 112.103 95.4414 110.455 97.6129C108.807 99.7844 106.967 101.728 104.976 103.437C104.138 104.156 102.875 104.06 102.156 103.222C101.437 102.383 101.533 101.121 102.371 100.401C104.148 98.876 105.793 97.1391 107.269 95.1947C108.744 93.2503 109.975 91.1988 110.966 89.0767C111.433 88.0759 112.623 87.6434 113.624 88.1108Z" fill="#00D17F"/>
<circle cx="30.4141" cy="28" r="4" transform="rotate(90 30.4141 28)" fill="#FFD200"/>
<circle cx="61.4141" cy="16" r="4" transform="rotate(90 61.4141 16)" fill="#FFD200"/>
<circle cx="73.4141" cy="64" r="12" transform="rotate(90 73.4141 64)" fill="#0052FF"/>
<circle cx="73.4141" cy="64" r="4" transform="rotate(90 73.4141 64)" fill="#FEFFFF"/>
<circle cx="105.503" cy="60" r="4" transform="rotate(90 105.503 60)" fill="#FFD200"/>
<circle cx="73.4141" cy="64" r="2" transform="rotate(90 73.4141 64)" fill="#FEFFFF"/>
<rect x="45.4141" y="92" width="32" height="8" fill="#0052FF"/>
<rect x="41.4141" y="100" width="40" height="8" fill="#0052FF"/>
<path fill-rule="evenodd" clip-rule="evenodd" d="M74.8284 65.4141L61.4142 78.8283L53.4142 70.8283L2.82843 121.414L0 118.586L53.4142 65.1715L61.4142 73.1715L72 62.5857L74.8284 65.4141Z" fill="#5B616E" fill-opacity="0.66"/>
<path d="M74.8281 65.4138L61.4141 78.8279L53.4141 70.8279L40.2451 83.9958C39.2447 83.1127 38.3011 82.1672 37.418 81.1667L53.4141 65.1716L61.4141 73.1716L72 62.5857L74.8281 65.4138Z" fill="#0052FF"/>
<path d="M74.8281 65.4138L66.4629 73.7781C65.3697 72.9995 64.4131 72.0433 63.6348 70.95L72 62.5857L74.8281 65.4138Z" fill="#FEFFFF"/>
<rect x="49.4141" y="92" width="24" height="16" fill="#CED3DA"/>
<defs>
<linearGradient id="paint0_linear_352_92986" x1="93.4138" y1="92.0002" x2="15.0647" y2="45.1419" gradientUnits="userSpaceOnUse">
<stop stop-color="#0052FF"/>
<stop offset="0.5" stop-color="#8BBAE5"/>
<stop offset="1" stop-color="#5459CE"/>
</linearGradient>
<linearGradient id="paint1_linear_352_92986" x1="91.9875" y1="55.0027" x2="26.7405" y2="59.6253" gradientUnits="userSpaceOnUse">
<stop stop-color="#568A9A" stop-opacity="0"/>
<stop offset="1" stop-color="#358FB5"/>
</linearGradient>
</defs>
</svg>
